<svg style="width: 1em;height: 1em;vertical-align: middle;fill: currentColor;overflow: hidden;" viewBox="0 0 1024 1024" version="1.1" xmlns="http://www.w3.org/2000/svg"><path d="M506.075809 546.976206c-145.260076 0-263.436846-118.16774-263.436846-263.418785 0-145.260076 118.17677-263.436846 263.436846-263.436846 145.260076 0 263.436846 118.16774 263.436846 263.436846C769.512655 428.799436 651.335885 546.976206 506.075809 546.976206zM506.075809 76.996419c-113.896181 0-206.561002 92.664821-206.561002 206.561002S392.179628 490.100362 506.075809 490.100362c113.905212 0 206.561002-92.646759 206.561002-206.54294S619.981021 76.996419 506.075809 76.996419zM514.754388 621.191146c-250.902125 0-455.024817 174.88103-455.024817 389.840656l28.437922 0c0-199.607302 190.991939-361.411765 426.586895-361.411765s426.586895 161.804462 426.586895 361.411765l20.156698 0 8.281224 0C969.788235 796.072176 765.647482 621.191146 514.754388 621.191146zM514.754388 678.057959c219.547262 0 398.148973 149.360049 398.148973 332.964812l28.437922 0c0-199.607302-190.991939-361.411765-426.586895-361.411765S88.167493 811.4245 88.167493 1011.031802l28.437922 0C116.605415 827.427039 295.207126 678.057959 514.754388 678.057959z"></path></svg><svg style="width: 1em;height: 1em;vertical-align: middle;fill: currentColor;overflow: hidden;" viewBox="0 0 1024 1024" version="1.1" xmlns="http://www.w3.org/2000/svg"><path d="M515.541449 7.082899c-280.359429 0-508.458551 228.120391-508.458551 508.458551s228.120391 508.458551 508.458551 508.458551 508.458551-228.120391 508.458551-508.458551S795.900879 7.082899 515.541449 7.082899zM515.541449 981.864196c-257.132626 0-466.301477-209.190121-466.301477-466.322747 0-257.132626 209.168851-466.322747 466.301477-466.322747s466.301477 209.190121 466.301477 466.322747S772.674075 981.864196 515.541449 981.864196zM614.574414 524.177056 614.574414 524.177056c47.751075-31.96876 79.230625-86.398604 79.230625-148.187857 0-98.437405-79.804915-178.24232-178.24232-178.24232-98.437405 0-178.24232 79.804915-178.24232 178.24232 0 61.810523 31.479551 116.219097 79.251895 148.187857-100.266622 39.519598-171.244501 137.170014-171.244501 251.453545 0 0.23397 0 0.446669 0.02127 0.659369 0 0.04254-0.02127 0.10635-0.02127 0.14889 0 15.612155 12.65563 28.246516 28.267786 28.246516 15.590885 0 21.886796-12.63436 21.886796-28.246516 0-0.340319-0.08508-0.659369-0.10635-1.020958 0.10635-118.005774 102.159649-219.995264 220.207964-219.995264 118.112124 0 220.207964 102.095839 220.207964 220.207964 0 0.14889-1.467628 29.054774 21.971875 29.054774 15.505806 0 28.076356-12.57055 28.076356-28.055086 0-0.06381-0.02127-0.12762-0.02127-0.2127 0-0.25524 0.02127-0.510479 0.02127-0.786989C785.797645 661.34707 714.798496 563.696654 614.574414 524.177056zM515.541449 510.734437c-74.402343 0-134.723968-60.321625-134.723968-134.723968 0-74.423613 60.321625-134.723968 134.723968-134.723968 74.423613 0 134.723968 60.321625 134.723968 134.723968S589.943792 510.734437 515.541449 510.734437z"></path></svg>